<?xml version="1.0" standalone="no"?>
<!DOCTYPE svg PUBLIC "-//W3C//DTD SVG 20010904//EN"
 "http://www.w3.org/TR/2001/REC-SVG-20010904/DTD/svg10.dtd">
<svg version="1.0" xmlns="http://www.w3.org/2000/svg"
 width="400.000000pt" height="400.000000pt" viewBox="0 0 400.000000 400.000000"
 preserveAspectRatio="xMidYMid meet">
<metadata>
Created by potrace 1.11, written by Peter Selinger 2001-2013
</metadata>
<g transform="translate(0.000000,400.000000) scale(0.100000,-0.100000)"
fill="#000000" stroke="none">
<path d="M0 2000 l0 -2000 2000 0 2000 0 0 2000 0 2000 -2000 0 -2000 0 0
-2000z m997 1141 l32 -36 47 53 46 52 36 -20 c21 -12 47 -37 60 -56 l22 -34
53 56 52 56 43 -32 c23 -17 47 -42 52 -55 13 -33 21 -31 47 10 13 19 36 41 53
50 27 14 32 14 55 -1 14 -9 37 -31 51 -48 l24 -31 45 48 c24 26 49 47 55 47
18 0 63 -32 91 -64 l27 -30 49 54 50 54 44 -42 c26 -24 54 -64 68 -97 23 -53
23 -61 11 -108 -15 -64 -40 -106 -79 -134 -27 -21 -31 -21 -60 -7 -16 8 -41
28 -55 44 -24 29 -46 39 -46 22 0 -5 -16 -25 -37 -45 -51 -51 -75 -49 -119 12
-36 51 -58 57 -69 20 -4 -10 -22 -31 -40 -45 -29 -22 -37 -24 -57 -13 -33 17
-68 50 -68 65 0 31 -24 22 -68 -27 l-48 -52 -31 16 c-17 9 -43 31 -57 49 l-26
33 -28 -31 c-15 -18 -39 -39 -54 -49 -33 -21 -52 -12 -102 47 l-36 43 -24 -30
c-31 -36 -32 -49 -7 -74 11 -11 27 -44 37 -74 16 -53 16 -56 -4 -124 -12 -39
-29 -76 -37 -83 -21 -17 -19 -26 15 -94 46 -91 40 -167 -21 -244 -18 -23 -18
-25 4 -63 12 -21 25 -39 28 -39 4 0 18 17 32 38 42 60 60 66 113 43 25 -11 54
-31 64 -43 l18 -23 39 44 c34 39 43 43 67 37 29 -7 72 -45 94 -81 12 -20 13
-20 30 5 9 14 29 38 43 54 24 27 27 28 61 17 21 -7 48 -28 63 -47 l27 -36 42
48 43 48 47 -18 c29 -11 52 -27 58 -42 15 -33 26 -30 65 16 19 22 40 40 46 40
31 0 87 -53 113 -106 26 -54 27 -58 16 -129 -11 -73 -20 -89 -79 -138 -19 -17
-24 -17 -51 -3 -16 8 -41 29 -55 46 -14 16 -28 30 -31 30 -3 0 -22 -18 -42
-40 -50 -55 -90 -52 -146 14 l-28 31 -43 -49 -43 -49 -39 21 c-22 11 -48 35
-59 52 l-19 33 -47 -52 c-43 -47 -50 -51 -73 -42 -39 15 -67 35 -67 47 0 6 -8
18 -19 28 -17 16 -19 14 -44 -21 -41 -59 -57 -65 -106 -40 -25 12 -44 30 -47
44 -12 45 -30 46 -63 6 -28 -34 -29 -39 -16 -58 74 -101 79 -216 13 -291 l-31
-35 21 -22 c59 -65 65 -211 11 -277 -35 -42 -35 -43 -5 -83 56 -76 62 -172 15
-241 -33 -50 -64 -76 -90 -76 -29 0 -81 51 -105 105 -19 41 -22 60 -17 105 6
59 22 98 47 119 21 18 20 44 -3 65 -10 9 -26 41 -35 70 -23 74 -5 156 47 214
19 20 19 23 4 35 -29 22 -66 121 -61 163 6 54 24 104 46 134 19 26 18 26 -11
85 -35 71 -47 155 -26 195 8 15 25 41 39 57 l25 29 -37 53 c-33 48 -37 59 -35
112 1 45 9 72 34 118 l33 60 -21 23 c-11 13 -28 45 -37 72 -15 44 -15 54 -1
110 9 33 24 73 35 88 25 34 25 41 2 62 -26 22 -42 80 -43 155 -2 56 1 66 32
104 62 79 70 84 104 69 17 -8 44 -31 62 -51z m1928 -326 l39 -44 46 50 45 50
45 -23 c60 -31 100 -106 100 -188 0 -46 -6 -65 -31 -105 -25 -39 -29 -52 -20
-65 34 -46 46 -88 45 -160 0 -87 -17 -126 -70 -166 -34 -27 -36 -27 -69 -11
-19 9 -45 32 -57 52 -13 19 -26 35 -30 35 -3 0 -16 -15 -27 -34 -27 -43 -66
-69 -92 -61 -33 11 -79 56 -94 92 -31 73 -14 185 36 254 10 13 8 22 -9 43 -37
48 -54 117 -42 171 14 62 25 82 68 128 44 45 62 43 117 -18z m-664 9 c36 -34
68 -124 62 -172 -5 -36 -31 -102 -54 -132 -9 -13 -6 -24 15 -54 26 -39 46 -95
46 -132 0 -48 -32 -127 -66 -160 -41 -39 -50 -41 -84 -17 -61 42 -100 118
-100 195 0 34 17 71 64 133 7 9 1 23 -16 44 -48 57 -61 176 -26 238 39 69 69
95 103 89 16 -4 41 -18 56 -32z m-1111 -70 c0 -8 -7 -14 -15 -14 -15 0 -21 21
-9 33 10 9 24 -2 24 -19z m2390 -94 c8 -5 11 -10 5 -10 -5 0 -17 5 -25 10 -8
5 -10 10 -5 10 6 0 17 -5 25 -10z m-1477 -120 c3 -13 0 -20 -9 -20 -8 0 -14 9
-14 20 0 11 4 20 9 20 5 0 11 -9 14 -20z m11 -54 c-6 -16 -34 -17 -34 -1 0 6
9 11 19 12 12 1 18 -3 15 -11z m496 -56 c0 -11 -2 -20 -4 -20 -2 0 -6 9 -9 20
-3 11 -1 20 4 20 5 0 9 -9 9 -20z m-523 -12 c-3 -8 -6 -5 -6 6 -1 11 2 17 5
13 3 -3 4 -12 1 -19z m-911 -55 c-10 -10 -19 5 -10 18 6 11 8 11 12 0 2 -7 1
-15 -2 -18z m394 6 c0 -5 -4 -9 -10 -9 -5 0 -10 7 -10 16 0 8 5 12 10 9 6 -3
10 -10 10 -16z m1747 5 c-3 -3 -12 -4 -19 -1 -8 3 -5 6 6 6 11 1 17 -2 13 -5z
m-1710 -56 c-3 -8 -6 -5 -6 6 -1 11 2 17 5 13 3 -3 4 -12 1 -19z m933 2 c0 -5
-5 -10 -11 -10 -5 0 -7 5 -4 10 3 6 8 10 11 10 2 0 4 -4 4 -10z m-753 -50 c1
-14 -4 -20 -18 -20 -22 0 -21 22 1 32 8 4 15 7 15 7 1 1 1 -8 2 -19z m873 0
c0 -11 -7 -20 -15 -20 -15 0 -21 21 -8 33 12 13 23 7 23 -13z m-1864 1 c-4 -5
0 -12 6 -14 7 -3 3 -6 -9 -6 -23 -1 -30 9 -16 22 10 10 25 8 19 -2z m504 -6
c0 -8 -7 -15 -15 -15 -8 0 -15 7 -15 15 0 8 7 15 15 15 8 0 15 -7 15 -15z
m531 8 c-11 -5 -11 -7 0 -15 12 -8 12 -9 0 -6 -22 6 -25 28 -4 27 12 0 14 -2
4 -6z m586 -15 c-3 -8 -6 -5 -6 6 -1 11 2 17 5 13 3 -3 4 -12 1 -19z m-297
-44 c0 -9 -7 -14 -17 -12 -25 5 -28 28 -4 28 12 0 21 -6 21 -16z m297 -6 c-3
-8 -6 -5 -6 6 -1 11 2 17 5 13 3 -3 4 -12 1 -19z m344 -11 c-10 -9 -11 -8 -5
6 3 10 9 15 12 12 3 -3 0 -11 -7 -18z m-538 -91 c3 -8 -2 -16 -14 -19 -14 -4
-19 0 -19 14 0 22 25 26 33 5z m861 6 c3 -5 -1 -9 -9 -9 -8 0 -15 4 -15 9 0 4
4 8 9 8 6 0 12 -4 15 -8z m-2327 -62 c-1 -23 -22 -27 -30 -6 -6 16 1 26 19 26
7 0 12 -9 11 -20z m33 -6 c0 -8 -4 -12 -10 -9 -5 3 -10 13 -10 21 0 8 5 12 10
9 6 -3 10 -13 10 -21z m-95 -56 c6 -4 2 -8 -7 -8 -10 0 -18 7 -18 17 0 9 3 12
8 7 4 -5 12 -12 17 -16z m95 1 c0 -6 -4 -7 -10 -4 -5 3 -10 11 -10 16 0 6 5 7
10 4 6 -3 10 -11 10 -16z m-35 -39 c8 -13 -5 -13 -25 0 -13 8 -13 10 2 10 9 0
20 -4 23 -10z m-539 -62 c4 -7 3 -8 -4 -4 -7 4 -12 2 -12 -3 0 -6 -5 -11 -11
-11 -8 0 -8 5 1 15 15 18 17 18 26 3z m594 -3 c0 -8 -9 -15 -20 -15 -11 0 -20
7 -20 15 0 8 9 15 20 15 11 0 20 -7 20 -15z m2104 -39 c18 -8 46 -30 61 -50
15 -20 30 -36 34 -36 4 0 15 13 24 30 10 16 31 38 47 50 27 19 31 20 59 6 40
-21 66 -57 87 -118 14 -45 15 -60 4 -121 -9 -50 -19 -75 -36 -90 -28 -24 -30
-39 -7 -58 25 -21 53 -90 53 -132 0 -72 -19 -122 -65 -167 -42 -41 -45 -42
-75 -30 -42 17 -72 56 -95 122 -18 55 -18 59 -1 120 10 35 29 75 43 90 l26 27
-32 40 -32 41 -32 -42 c-18 -22 -39 -46 -48 -51 -24 -15 -75 9 -104 48 -30 38
-61 150 -52 186 5 21 95 149 104 149 2 0 19 -6 37 -14z m-2563 -23 c-12 -20
-14 -14 -5 12 4 9 9 14 11 11 3 -2 0 -13 -6 -23z m493 11 c3 -8 2 -12 -4 -9
-6 3 -10 10 -10 16 0 14 7 11 14 -7z m-37 -10 c-3 -3 -12 -4 -19 -1 -8 3 -5 6
6 6 11 1 17 -2 13 -5z m-556 -21 c13 -16 12 -17 -3 -4 -10 7 -18 15 -18 17 0
8 8 3 21 -13z m559 -23 c0 -5 -7 -7 -15 -4 -8 4 -15 8 -15 10 0 2 7 4 15 4 8
0 15 -4 15 -10z m1137 -5 c0 -8 -6 -15 -14 -15 -7 0 -13 7 -13 15 0 8 6 15 13
15 8 0 14 -7 14 -15z m40 0 c0 -8 -4 -15 -9 -15 -10 0 -11 14 -1 23 9 10 10 9
10 -8z m-1798 -94 c-2 -6 -10 2 -17 17 -11 25 -11 25 4 10 9 -9 15 -21 13 -27z
m1758 33 c-3 -3 -12 -4 -19 -1 -8 3 -5 6 6 6 11 1 17 -2 13 -5z m-1417 -88 c0
-2 -8 -10 -17 -17 -16 -13 -17 -12 -4 4 13 16 21 21 21 13z m2018 -72 c2 -14
1 -16 -6 -5 -8 11 -10 11 -15 0 -3 -8 -4 -4 -4 9 1 26 21 24 25 -4z m-1420
-53 c3 -8 -1 -12 -9 -9 -7 2 -15 10 -17 17 -3 8 1 12 9 9 7 -2 15 -10 17 -17z
m12 -52 c0 -11 -4 -17 -10 -14 -5 3 -10 13 -10 21 0 8 5 14 10 14 6 0 10 -9
10 -21z m46 4 c-3 -19 -36 -32 -36 -14 0 6 5 11 11 11 5 0 7 5 4 10 -3 6 0 10
9 10 8 0 13 -8 12 -17z m2454 -9 c0 -2 -9 0 -20 6 -11 6 -20 13 -20 16 0 2 9
0 20 -6 11 -6 20 -13 20 -16z m-980 12 c0 -2 -7 -6 -15 -10 -8 -3 -15 -1 -15
4 0 6 7 10 15 10 8 0 15 -2 15 -4z m-1433 -68 c-3 -8 -6 -5 -6 6 -1 11 2 17 5
13 3 -3 4 -12 1 -19z m-485 -147 c7 11 8 9 6 -5 -4 -29 -28 -32 -27 -4 0 13 3
17 6 9 5 -11 7 -11 15 0z m2575 -11 c1 -13 -4 -20 -17 -20 -16 0 -19 11 -11
38 1 1 7 2 14 2 7 0 13 -9 14 -20z m-383 -76 c27 -19 47 -44 67 -90 25 -56 28
-68 20 -111 -5 -26 -14 -59 -19 -73 -13 -34 -79 -100 -99 -100 -9 0 -35 19
-57 43 -85 88 -87 209 -6 312 19 24 40 44 45 45 6 0 28 -12 49 -26z m-2139
-84 c-3 -5 -1 -10 6 -10 7 0 10 -3 6 -6 -10 -10 -39 5 -32 16 3 5 11 10 16 10
6 0 7 -4 4 -10z m2415 -65 c0 -3 -9 -5 -20 -5 -11 0 -20 7 -20 15 0 13 4 14
20 5 11 -6 20 -13 20 -15z m48 -49 c3 -12 -1 -17 -10 -14 -7 3 -15 13 -16 22
-3 12 1 17 10 14 7 -3 15 -13 16 -22z m669 -68 c-3 -8 -6 -5 -6 6 -1 11 2 17
5 13 3 -3 4 -12 1 -19z"/>
<path d="M2941 2545 l-24 -36 19 -36 c26 -49 38 -50 63 -10 26 43 26 45 -7 85
l-27 32 -24 -35z"/>
</g>
</svg>
